<svg width="86" height="86" viewBox="0 0 86 86" fill="none" xmlns="http://www.w3.org/2000/svg">
<path d="M82 39.0005C82 60.5396 64.5391 78.0005 43 78.0005C21.4609 78.0005 4 60.5396 4 39.0005C4 17.4614 21.4609 0.000488281 43 0.000488281C64.5391 0.000488281 82 17.4614 82 39.0005ZM21.0843 39.0005C21.0843 51.1042 30.8963 60.9162 43 60.9162C55.1037 60.9162 64.9157 51.1042 64.9157 39.0005C64.9157 26.8968 55.1037 17.0848 43 17.0848C30.8963 17.0848 21.0843 26.8968 21.0843 39.0005Z" fill="#D9D9D9"/>
<g filter="url(#filter0_d_25_325)">
<path d="M62.4631 5.20423C56.5388 1.79247 49.8218 -0.00207604 42.9854 0.000491031C36.1489 0.0030581 29.4332 1.80264 23.5115 5.21886L32.0486 20.0172C35.3763 18.0975 39.1501 17.0862 42.9918 17.0848C46.8335 17.0833 50.608 18.0917 53.9371 20.009L62.4631 5.20423Z" fill="#F78918"/>
<path d="M62.4631 5.20423C56.5388 1.79247 49.8218 -0.00207604 42.9854 0.000491031C36.1489 0.0030581 29.4332 1.80264 23.5115 5.21886L32.0486 20.0172C35.3763 18.0975 39.1501 17.0862 42.9918 17.0848C46.8335 17.0833 50.608 18.0917 53.9371 20.009L62.4631 5.20423Z" fill="url(#paint0_linear_25_325)" fill-opacity="0.4"/>
</g>
<g filter="url(#filter1_d_25_325)">
<path d="M82 39.0005C82 32.164 80.2029 25.4477 76.7889 19.5247C73.375 13.6017 68.464 8.68016 62.5484 5.25346L53.985 20.0366C57.3093 21.9622 60.069 24.7278 61.9874 28.0562C63.9059 31.3846 64.9157 35.1588 64.9157 39.0005H82Z" fill="#F78918"/>
<path d="M82 39.0005C82 32.164 80.2029 25.4477 76.7889 19.5247C73.375 13.6017 68.464 8.68016 62.5484 5.25346L53.985 20.0366C57.3093 21.9622 60.069 24.7278 61.9874 28.0562C63.9059 31.3846 64.9157 35.1588 64.9157 39.0005H82Z" fill="url(#paint1_linear_25_325)" fill-opacity="0.4"/>
</g>
<g filter="url(#filter2_d_25_325)">
<path d="M62.2259 72.9322C68.174 69.562 73.1316 64.6875 76.6019 58.7973C80.0721 52.9071 81.9331 46.2082 81.9982 39.3721L64.9147 39.2093C64.8781 43.0508 63.8324 46.8152 61.8823 50.1252C59.9322 53.4351 57.1463 56.1743 53.8039 58.0682L62.2259 72.9322Z" fill="#F78918"/>
<path d="M62.2259 72.9322C68.174 69.562 73.1316 64.6875 76.6019 58.7973C80.0721 52.9071 81.9331 46.2082 81.9982 39.3721L64.9147 39.2093C64.8781 43.0508 63.8324 46.8152 61.8823 50.1252C59.9322 53.4351 57.1463 56.1743 53.8039 58.0682L62.2259 72.9322Z" fill="url(#paint2_linear_25_325)" fill-opacity="0.4"/>
</g>
<g filter="url(#filter3_d_25_325)">
<path d="M23.2939 72.6556C29.1934 76.11 35.8974 77.9529 42.7337 77.9996C49.57 78.0463 56.2984 76.2951 62.2446 72.9217L53.8143 58.0622C50.4729 59.9579 46.6919 60.942 42.8503 60.9157C39.0087 60.8895 35.2415 59.8539 31.9263 57.9127L23.2939 72.6556Z" fill="#F78918"/>
<path d="M23.2939 72.6556C29.1934 76.11 35.8974 77.9529 42.7337 77.9996C49.57 78.0463 56.2984 76.2951 62.2446 72.9217L53.8143 58.0622C50.4729 59.9579 46.6919 60.942 42.8503 60.9157C39.0087 60.8895 35.2415 59.8539 31.9263 57.9127L23.2939 72.6556Z" fill="url(#paint3_linear_25_325)" fill-opacity="0.4"/>
</g>
<g filter="url(#filter4_d_25_325)">
<path d="M4 39.0005C4 45.8369 5.79706 52.5533 9.21105 58.4763C12.625 64.3993 17.536 69.3208 23.4516 72.7475L32.015 57.9644C28.6907 56.0387 25.931 53.2731 24.0126 49.9448C22.0941 46.6164 21.0843 42.8422 21.0843 39.0005H4Z" fill="#F78918"/>
<path d="M4 39.0005C4 45.8369 5.79706 52.5533 9.21105 58.4763C12.625 64.3993 17.536 69.3208 23.4516 72.7475L32.015 57.9644C28.6907 56.0387 25.931 53.2731 24.0126 49.9448C22.0941 46.6164 21.0843 42.8422 21.0843 39.0005H4Z" fill="url(#paint4_linear_25_325)" fill-opacity="0.4"/>
</g>
<g filter="url(#filter5_d_25_325)">
<path d="M23.5529 5.19502C17.627 8.60398 12.7013 13.5108 9.26958 19.4235C5.83785 25.3362 4.02067 32.0472 4.00018 38.8836L21.0844 38.9348C21.0959 35.0931 22.117 31.322 24.0455 27.9994C25.9739 24.6767 28.7418 21.9194 32.0718 20.0038L23.5529 5.19502Z" fill="#F78918"/>
<path d="M23.5529 5.19502C17.627 8.60398 12.7013 13.5108 9.26958 19.4235C5.83785 25.3362 4.02067 32.0472 4.00018 38.8836L21.0844 38.9348C21.0959 35.0931 22.117 31.322 24.0455 27.9994C25.9739 24.6767 28.7418 21.9194 32.0718 20.0038L23.5529 5.19502Z" fill="url(#paint5_linear_25_325)" fill-opacity="0.4"/>
</g>
<path d="M4 39.001H21" stroke="white"/>
<path d="M65 39.001H82" stroke="white"/>
<path d="M23.5 5.22534L32 20.001" stroke="white"/>
<path d="M54 58.001L62.5 72.7766" stroke="white"/>
<path d="M32 58.001L23.3062 72.9421" stroke="white"/>
<path d="M62.6938 5.00098L54 19.9421" stroke="white"/>
<path d="M38.048 46.1805C37.052 46.1805 36.152 45.9285 35.348 45.4245C34.556 44.9205 33.932 44.1885 33.476 43.2285C33.02 42.2565 32.792 41.0805 32.792 39.7005C32.792 38.3205 33.02 37.1505 33.476 36.1905C33.932 35.2185 34.556 34.4805 35.348 33.9765C36.152 33.4725 37.052 33.2205 38.048 33.2205C39.056 33.2205 39.956 33.4725 40.748 33.9765C41.54 34.4805 42.164 35.2185 42.62 36.1905C43.088 37.1505 43.322 38.3205 43.322 39.7005C43.322 41.0805 43.088 42.2565 42.62 43.2285C42.164 44.1885 41.54 44.9205 40.748 45.4245C39.956 45.9285 39.056 46.1805 38.048 46.1805ZM38.048 44.1465C38.636 44.1465 39.146 43.9905 39.578 43.6785C40.01 43.3545 40.346 42.8625 40.586 42.2025C40.838 41.5425 40.964 40.7085 40.964 39.7005C40.964 38.6805 40.838 37.8465 40.586 37.1985C40.346 36.5385 40.01 36.0525 39.578 35.7405C39.146 35.4165 38.636 35.2545 38.048 35.2545C37.484 35.2545 36.98 35.4165 36.536 35.7405C36.104 36.0525 35.762 36.5385 35.51 37.1985C35.27 37.8465 35.15 38.6805 35.15 39.7005C35.15 40.7085 35.27 41.5425 35.51 42.2025C35.762 42.8625 36.104 43.3545 36.536 43.6785C36.98 43.9905 37.484 44.1465 38.048 44.1465ZM50.3573 46.1805C49.2173 46.1805 48.2393 45.9405 47.4233 45.4605C46.6073 44.9685 45.9833 44.2605 45.5513 43.3365C45.1193 42.4125 44.9033 41.2725 44.9033 39.9165C44.9033 38.4765 45.1613 37.2585 45.6773 36.2625C46.2053 35.2665 46.9313 34.5105 47.8553 33.9945C48.7913 33.4785 49.8653 33.2205 51.0773 33.2205C51.7133 33.2205 52.3193 33.2865 52.8953 33.4185C53.4833 33.5505 53.9813 33.7545 54.3893 34.0305L53.5253 35.7945C53.1773 35.5665 52.7993 35.4105 52.3913 35.3265C51.9953 35.2305 51.5753 35.1825 51.1313 35.1825C49.9433 35.1825 49.0013 35.5485 48.3053 36.2805C47.6093 37.0125 47.2613 38.0925 47.2613 39.5205C47.2613 39.7485 47.2673 40.0185 47.2793 40.3305C47.2913 40.6305 47.3333 40.9365 47.4053 41.2485L46.6853 40.4565C46.9013 39.9645 47.1953 39.5565 47.5673 39.2325C47.9513 38.8965 48.4013 38.6445 48.9173 38.4765C49.4453 38.3085 50.0153 38.2245 50.6273 38.2245C51.4553 38.2245 52.1933 38.3865 52.8413 38.7105C53.4893 39.0225 54.0053 39.4725 54.3893 40.0605C54.7733 40.6365 54.9653 41.3145 54.9653 42.0945C54.9653 42.9225 54.7613 43.6425 54.3533 44.2545C53.9453 44.8665 53.3933 45.3405 52.6973 45.6765C52.0013 46.0125 51.2213 46.1805 50.3573 46.1805ZM50.2313 44.3445C50.7113 44.3445 51.1373 44.2605 51.5093 44.0925C51.8813 43.9125 52.1693 43.6605 52.3733 43.3365C52.5893 43.0125 52.6973 42.6345 52.6973 42.2025C52.6973 41.5425 52.4693 41.0205 52.0133 40.6365C51.5573 40.2525 50.9453 40.0605 50.1773 40.0605C49.6733 40.0605 49.2293 40.1565 48.8453 40.3485C48.4733 40.5285 48.1733 40.7805 47.9453 41.1045C47.7293 41.4285 47.6213 41.8005 47.6213 42.2205C47.6213 42.6045 47.7233 42.9585 47.9273 43.2825C48.1313 43.6065 48.4253 43.8645 48.8093 44.0565C49.2053 44.2485 49.6793 44.3445 50.2313 44.3445Z" fill="#F78918"/>
<path d="M38.048 46.1805C37.052 46.1805 36.152 45.9285 35.348 45.4245C34.556 44.9205 33.932 44.1885 33.476 43.2285C33.02 42.2565 32.792 41.0805 32.792 39.7005C32.792 38.3205 33.02 37.1505 33.476 36.1905C33.932 35.2185 34.556 34.4805 35.348 33.9765C36.152 33.4725 37.052 33.2205 38.048 33.2205C39.056 33.2205 39.956 33.4725 40.748 33.9765C41.54 34.4805 42.164 35.2185 42.62 36.1905C43.088 37.1505 43.322 38.3205 43.322 39.7005C43.322 41.0805 43.088 42.2565 42.62 43.2285C42.164 44.1885 41.54 44.9205 40.748 45.4245C39.956 45.9285 39.056 46.1805 38.048 46.1805ZM38.048 44.1465C38.636 44.1465 39.146 43.9905 39.578 43.6785C40.01 43.3545 40.346 42.8625 40.586 42.2025C40.838 41.5425 40.964 40.7085 40.964 39.7005C40.964 38.6805 40.838 37.8465 40.586 37.1985C40.346 36.5385 40.01 36.0525 39.578 35.7405C39.146 35.4165 38.636 35.2545 38.048 35.2545C37.484 35.2545 36.98 35.4165 36.536 35.7405C36.104 36.0525 35.762 36.5385 35.51 37.1985C35.27 37.8465 35.15 38.6805 35.15 39.7005C35.15 40.7085 35.27 41.5425 35.51 42.2025C35.762 42.8625 36.104 43.3545 36.536 43.6785C36.98 43.9905 37.484 44.1465 38.048 44.1465ZM50.3573 46.1805C49.2173 46.1805 48.2393 45.9405 47.4233 45.4605C46.6073 44.9685 45.9833 44.2605 45.5513 43.3365C45.1193 42.4125 44.9033 41.2725 44.9033 39.9165C44.9033 38.4765 45.1613 37.2585 45.6773 36.2625C46.2053 35.2665 46.9313 34.5105 47.8553 33.9945C48.7913 33.4785 49.8653 33.2205 51.0773 33.2205C51.7133 33.2205 52.3193 33.2865 52.8953 33.4185C53.4833 33.5505 53.9813 33.7545 54.3893 34.0305L53.5253 35.7945C53.1773 35.5665 52.7993 35.4105 52.3913 35.3265C51.9953 35.2305 51.5753 35.1825 51.1313 35.1825C49.9433 35.1825 49.0013 35.5485 48.3053 36.2805C47.6093 37.0125 47.2613 38.0925 47.2613 39.5205C47.2613 39.7485 47.2673 40.0185 47.2793 40.3305C47.2913 40.6305 47.3333 40.9365 47.4053 41.2485L46.6853 40.4565C46.9013 39.9645 47.1953 39.5565 47.5673 39.2325C47.9513 38.8965 48.4013 38.6445 48.9173 38.4765C49.4453 38.3085 50.0153 38.2245 50.6273 38.2245C51.4553 38.2245 52.1933 38.3865 52.8413 38.7105C53.4893 39.0225 54.0053 39.4725 54.3893 40.0605C54.7733 40.6365 54.9653 41.3145 54.9653 42.0945C54.9653 42.9225 54.7613 43.6425 54.3533 44.2545C53.9453 44.8665 53.3933 45.3405 52.6973 45.6765C52.0013 46.0125 51.2213 46.1805 50.3573 46.1805ZM50.2313 44.3445C50.7113 44.3445 51.1373 44.2605 51.5093 44.0925C51.8813 43.9125 52.1693 43.6605 52.3733 43.3365C52.5893 43.0125 52.6973 42.6345 52.6973 42.2025C52.6973 41.5425 52.4693 41.0205 52.0133 40.6365C51.5573 40.2525 50.9453 40.0605 50.1773 40.0605C49.6733 40.0605 49.2293 40.1565 48.8453 40.3485C48.4733 40.5285 48.1733 40.7805 47.9453 41.1045C47.7293 41.4285 47.6213 41.8005 47.6213 42.2205C47.6213 42.6045 47.7233 42.9585 47.9273 43.2825C48.1313 43.6065 48.4253 43.8645 48.8093 44.0565C49.2053 44.2485 49.6793 44.3445 50.2313 44.3445Z" fill="url(#paint6_linear_25_325)" fill-opacity="0.4"/>
<defs>
<filter id="filter0_d_25_325" x="19.5117" y="0.000488281" width="46.9512" height="28.0166" filterUnits="userSpaceOnUse" color-interpolation-filters="sRGB">
<feFlood flood-opacity="0" result="BackgroundImageFix"/>
<feColorMatrix in="SourceAlpha" type="matrix" values="0 0 0 0 0 0 0 0 0 0 0 0 0 0 0 0 0 0 127 0" result="hardAlpha"/>
<feOffset dy="4"/>
<feGaussianBlur stdDeviation="2"/>
<feComposite in2="hardAlpha" operator="out"/>
<feColorMatrix type="matrix" values="0 0 0 0 0.28342 0 0 0 0 0.28342 0 0 0 0 0.28342 0 0 0 0.25 0"/>
<feBlend mode="normal" in2="BackgroundImageFix" result="effect1_dropShadow_25_325"/>
<feBlend mode="normal" in="SourceGraphic" in2="effect1_dropShadow_25_325" result="shape"/>
</filter>
<filter id="filter1_d_25_325" x="49.9849" y="5.25342" width="36.0151" height="41.7471" filterUnits="userSpaceOnUse" color-interpolation-filters="sRGB">
<feFlood flood-opacity="0" result="BackgroundImageFix"/>
<feColorMatrix in="SourceAlpha" type="matrix" values="0 0 0 0 0 0 0 0 0 0 0 0 0 0 0 0 0 0 127 0" result="hardAlpha"/>
<feOffset dy="4"/>
<feGaussianBlur stdDeviation="2"/>
<feComposite in2="hardAlpha" operator="out"/>
<feColorMatrix type="matrix" values="0 0 0 0 0.28342 0 0 0 0 0.28342 0 0 0 0 0.28342 0 0 0 0.25 0"/>
<feBlend mode="normal" in2="BackgroundImageFix" result="effect1_dropShadow_25_325"/>
<feBlend mode="normal" in="SourceGraphic" in2="effect1_dropShadow_25_325" result="shape"/>
</filter>
<filter id="filter2_d_25_325" x="49.8037" y="39.2092" width="36.1943" height="41.7229" filterUnits="userSpaceOnUse" color-interpolation-filters="sRGB">
<feFlood flood-opacity="0" result="BackgroundImageFix"/>
<feColorMatrix in="SourceAlpha" type="matrix" values="0 0 0 0 0 0 0 0 0 0 0 0 0 0 0 0 0 0 127 0" result="hardAlpha"/>
<feOffset dy="4"/>
<feGaussianBlur stdDeviation="2"/>
<feComposite in2="hardAlpha" operator="out"/>
<feColorMatrix type="matrix" values="0 0 0 0 0.28342 0 0 0 0 0.28342 0 0 0 0 0.28342 0 0 0 0.25 0"/>
<feBlend mode="normal" in2="BackgroundImageFix" result="effect1_dropShadow_25_325"/>
<feBlend mode="normal" in="SourceGraphic" in2="effect1_dropShadow_25_325" result="shape"/>
</filter>
<filter id="filter3_d_25_325" x="19.2939" y="57.9128" width="46.9507" height="28.0876" filterUnits="userSpaceOnUse" color-interpolation-filters="sRGB">
<feFlood flood-opacity="0" result="BackgroundImageFix"/>
<feColorMatrix in="SourceAlpha" type="matrix" values="0 0 0 0 0 0 0 0 0 0 0 0 0 0 0 0 0 0 127 0" result="hardAlpha"/>
<feOffset dy="4"/>
<feGaussianBlur stdDeviation="2"/>
<feComposite in2="hardAlpha" operator="out"/>
<feColorMatrix type="matrix" values="0 0 0 0 0.28342 0 0 0 0 0.28342 0 0 0 0 0.28342 0 0 0 0.25 0"/>
<feBlend mode="normal" in2="BackgroundImageFix" result="effect1_dropShadow_25_325"/>
<feBlend mode="normal" in="SourceGraphic" in2="effect1_dropShadow_25_325" result="shape"/>
</filter>
<filter id="filter4_d_25_325" x="0" y="39.0005" width="36.0151" height="41.7471" filterUnits="userSpaceOnUse" color-interpolation-filters="sRGB">
<feFlood flood-opacity="0" result="BackgroundImageFix"/>
<feColorMatrix in="SourceAlpha" type="matrix" values="0 0 0 0 0 0 0 0 0 0 0 0 0 0 0 0 0 0 127 0" result="hardAlpha"/>
<feOffset dy="4"/>
<feGaussianBlur stdDeviation="2"/>
<feComposite in2="hardAlpha" operator="out"/>
<feColorMatrix type="matrix" values="0 0 0 0 0.28342 0 0 0 0 0.28342 0 0 0 0 0.28342 0 0 0 0.25 0"/>
<feBlend mode="normal" in2="BackgroundImageFix" result="effect1_dropShadow_25_325"/>
<feBlend mode="normal" in="SourceGraphic" in2="effect1_dropShadow_25_325" result="shape"/>
</filter>
<filter id="filter5_d_25_325" x="0" y="5.19507" width="36.0718" height="41.7397" filterUnits="userSpaceOnUse" color-interpolation-filters="sRGB">
<feFlood flood-opacity="0" result="BackgroundImageFix"/>
<feColorMatrix in="SourceAlpha" type="matrix" values="0 0 0 0 0 0 0 0 0 0 0 0 0 0 0 0 0 0 127 0" result="hardAlpha"/>
<feOffset dy="4"/>
<feGaussianBlur stdDeviation="2"/>
<feComposite in2="hardAlpha" operator="out"/>
<feColorMatrix type="matrix" values="0 0 0 0 0.28342 0 0 0 0 0.28342 0 0 0 0 0.28342 0 0 0 0.25 0"/>
<feBlend mode="normal" in2="BackgroundImageFix" result="effect1_dropShadow_25_325"/>
<feBlend mode="normal" in="SourceGraphic" in2="effect1_dropShadow_25_325" result="shape"/>
</filter>
<linearGradient id="paint0_linear_25_325" x1="43" y1="0.000488281" x2="43" y2="78.0005" gradientUnits="userSpaceOnUse">
<stop stop-color="white"/>
<stop offset="1" stop-color="white" stop-opacity="0"/>
</linearGradient>
<linearGradient id="paint1_linear_25_325" x1="43" y1="0.000488281" x2="43" y2="78.0005" gradientUnits="userSpaceOnUse">
<stop stop-color="white"/>
<stop offset="1" stop-color="white" stop-opacity="0"/>
</linearGradient>
<linearGradient id="paint2_linear_25_325" x1="43" y1="0.000488281" x2="43" y2="78.0005" gradientUnits="userSpaceOnUse">
<stop stop-color="white"/>
<stop offset="1" stop-color="white" stop-opacity="0"/>
</linearGradient>
<linearGradient id="paint3_linear_25_325" x1="43" y1="0.000488281" x2="43" y2="78.0005" gradientUnits="userSpaceOnUse">
<stop stop-color="white"/>
<stop offset="1" stop-color="white" stop-opacity="0"/>
</linearGradient>
<linearGradient id="paint4_linear_25_325" x1="43" y1="0.000488281" x2="43" y2="78.0005" gradientUnits="userSpaceOnUse">
<stop stop-color="white"/>
<stop offset="1" stop-color="white" stop-opacity="0"/>
</linearGradient>
<linearGradient id="paint5_linear_25_325" x1="43" y1="0.000488281" x2="43" y2="78.0005" gradientUnits="userSpaceOnUse">
<stop stop-color="white"/>
<stop offset="1" stop-color="white" stop-opacity="0"/>
</linearGradient>
<linearGradient id="paint6_linear_25_325" x1="44" y1="29.0005" x2="44" y2="51.0005" gradientUnits="userSpaceOnUse">
<stop stop-color="white"/>
<stop offset="1" stop-color="white" stop-opacity="0"/>
</linearGradient>
</defs>
</svg>
