<svg width="82" height="81" viewBox="0 0 82 81" fill="none" xmlns="http://www.w3.org/2000/svg">
<path d="M78 39.0005C78 60.5396 60.5391 78.0005 39 78.0005C17.4609 78.0005 0 60.5396 0 39.0005C0 17.4614 17.4609 0.000488281 39 0.000488281C60.5391 0.000488281 78 17.4614 78 39.0005ZM17.0843 39.0005C17.0843 51.1042 26.8963 60.9162 39 60.9162C51.1037 60.9162 60.9157 51.1042 60.9157 39.0005C60.9157 26.8968 51.1037 17.0848 39 17.0848C26.8963 17.0848 17.0843 26.8968 17.0843 39.0005Z" fill="#F0F0F0"/>
<g filter="url(#filter0_d_25_310)">
<path d="M58.4631 5.20423C52.5388 1.79247 45.8218 -0.00207604 38.9854 0.000491031C32.1489 0.0030581 25.4332 1.80264 19.5115 5.21886L28.0486 20.0172C31.3763 18.0975 35.1501 17.0862 38.9918 17.0848C42.8335 17.0833 46.608 18.0917 49.9371 20.009L58.4631 5.20423Z" fill="#F78918"/>
<path d="M58.4631 5.20423C52.5388 1.79247 45.8218 -0.00207604 38.9854 0.000491031C32.1489 0.0030581 25.4332 1.80264 19.5115 5.21886L28.0486 20.0172C31.3763 18.0975 35.1501 17.0862 38.9918 17.0848C42.8335 17.0833 46.608 18.0917 49.9371 20.009L58.4631 5.20423Z" fill="url(#paint0_linear_25_310)" fill-opacity="0.4"/>
</g>
<g filter="url(#filter1_d_25_310)">
<path d="M78 39.0005C78 32.164 76.2029 25.4477 72.7889 19.5247C69.375 13.6017 64.464 8.68016 58.5484 5.25346L49.985 20.0366C53.3093 21.9622 56.069 24.7278 57.9874 28.0562C59.9059 31.3846 60.9157 35.1588 60.9157 39.0005H78Z" fill="#F78918"/>
<path d="M78 39.0005C78 32.164 76.2029 25.4477 72.7889 19.5247C69.375 13.6017 64.464 8.68016 58.5484 5.25346L49.985 20.0366C53.3093 21.9622 56.069 24.7278 57.9874 28.0562C59.9059 31.3846 60.9157 35.1588 60.9157 39.0005H78Z" fill="url(#paint1_linear_25_310)" fill-opacity="0.4"/>
</g>
<g filter="url(#filter2_d_25_310)">
<path d="M58.2259 72.9322C64.174 69.562 69.1316 64.6875 72.6019 58.7973C76.0721 52.9071 77.9331 46.2082 77.9982 39.3721L60.9147 39.2093C60.8781 43.0508 59.8324 46.8152 57.8823 50.1252C55.9322 53.4351 53.1463 56.1743 49.8039 58.0682L58.2259 72.9322Z" fill="#F78918"/>
<path d="M58.2259 72.9322C64.174 69.562 69.1316 64.6875 72.6019 58.7973C76.0721 52.9071 77.9331 46.2082 77.9982 39.3721L60.9147 39.2093C60.8781 43.0508 59.8324 46.8152 57.8823 50.1252C55.9322 53.4351 53.1463 56.1743 49.8039 58.0682L58.2259 72.9322Z" fill="url(#paint2_linear_25_310)" fill-opacity="0.4"/>
</g>
<path d="M61 39.001H78" stroke="white"/>
<path d="M19.5 5.22534L28 20.001" stroke="white"/>
<path d="M50 58.001L58.5 72.7766" stroke="white"/>
<path d="M58.6938 5.00098L50 19.9421" stroke="white"/>
<path d="M34.048 46.1805C33.052 46.1805 32.152 45.9285 31.348 45.4245C30.556 44.9205 29.932 44.1885 29.476 43.2285C29.02 42.2565 28.792 41.0805 28.792 39.7005C28.792 38.3205 29.02 37.1505 29.476 36.1905C29.932 35.2185 30.556 34.4805 31.348 33.9765C32.152 33.4725 33.052 33.2205 34.048 33.2205C35.056 33.2205 35.956 33.4725 36.748 33.9765C37.54 34.4805 38.164 35.2185 38.62 36.1905C39.088 37.1505 39.322 38.3205 39.322 39.7005C39.322 41.0805 39.088 42.2565 38.62 43.2285C38.164 44.1885 37.54 44.9205 36.748 45.4245C35.956 45.9285 35.056 46.1805 34.048 46.1805ZM34.048 44.1465C34.636 44.1465 35.146 43.9905 35.578 43.6785C36.01 43.3545 36.346 42.8625 36.586 42.2025C36.838 41.5425 36.964 40.7085 36.964 39.7005C36.964 38.6805 36.838 37.8465 36.586 37.1985C36.346 36.5385 36.01 36.0525 35.578 35.7405C35.146 35.4165 34.636 35.2545 34.048 35.2545C33.484 35.2545 32.98 35.4165 32.536 35.7405C32.104 36.0525 31.762 36.5385 31.51 37.1985C31.27 37.8465 31.15 38.6805 31.15 39.7005C31.15 40.7085 31.27 41.5425 31.51 42.2025C31.762 42.8625 32.104 43.3545 32.536 43.6785C32.98 43.9905 33.484 44.1465 34.048 44.1465ZM44.6875 46.1805C43.7995 46.1805 42.9295 46.0545 42.0775 45.8025C41.2375 45.5385 40.5295 45.1785 39.9535 44.7225L40.9615 42.9045C41.4175 43.2765 41.9695 43.5765 42.6175 43.8045C43.2655 44.0325 43.9435 44.1465 44.6515 44.1465C45.4915 44.1465 46.1455 43.9785 46.6135 43.6425C47.0815 43.2945 47.3155 42.8265 47.3155 42.2385C47.3155 41.6625 47.0995 41.2065 46.6675 40.8705C46.2355 40.5345 45.5395 40.3665 44.5795 40.3665H43.4275V38.7645L47.0275 34.4805L47.3335 35.3625H40.5655V33.4005H49.1515V34.9665L45.5515 39.2505L44.3275 38.5305H45.0295C46.5775 38.5305 47.7355 38.8785 48.5035 39.5745C49.2835 40.2585 49.6735 41.1405 49.6735 42.2205C49.6735 42.9285 49.4935 43.5825 49.1335 44.1825C48.7735 44.7825 48.2215 45.2685 47.4775 45.6405C46.7455 46.0005 45.8155 46.1805 44.6875 46.1805Z" fill="#F78918"/>
<path d="M34.048 46.1805C33.052 46.1805 32.152 45.9285 31.348 45.4245C30.556 44.9205 29.932 44.1885 29.476 43.2285C29.02 42.2565 28.792 41.0805 28.792 39.7005C28.792 38.3205 29.02 37.1505 29.476 36.1905C29.932 35.2185 30.556 34.4805 31.348 33.9765C32.152 33.4725 33.052 33.2205 34.048 33.2205C35.056 33.2205 35.956 33.4725 36.748 33.9765C37.54 34.4805 38.164 35.2185 38.62 36.1905C39.088 37.1505 39.322 38.3205 39.322 39.7005C39.322 41.0805 39.088 42.2565 38.62 43.2285C38.164 44.1885 37.54 44.9205 36.748 45.4245C35.956 45.9285 35.056 46.1805 34.048 46.1805ZM34.048 44.1465C34.636 44.1465 35.146 43.9905 35.578 43.6785C36.01 43.3545 36.346 42.8625 36.586 42.2025C36.838 41.5425 36.964 40.7085 36.964 39.7005C36.964 38.6805 36.838 37.8465 36.586 37.1985C36.346 36.5385 36.01 36.0525 35.578 35.7405C35.146 35.4165 34.636 35.2545 34.048 35.2545C33.484 35.2545 32.98 35.4165 32.536 35.7405C32.104 36.0525 31.762 36.5385 31.51 37.1985C31.27 37.8465 31.15 38.6805 31.15 39.7005C31.15 40.7085 31.27 41.5425 31.51 42.2025C31.762 42.8625 32.104 43.3545 32.536 43.6785C32.98 43.9905 33.484 44.1465 34.048 44.1465ZM44.6875 46.1805C43.7995 46.1805 42.9295 46.0545 42.0775 45.8025C41.2375 45.5385 40.5295 45.1785 39.9535 44.7225L40.9615 42.9045C41.4175 43.2765 41.9695 43.5765 42.6175 43.8045C43.2655 44.0325 43.9435 44.1465 44.6515 44.1465C45.4915 44.1465 46.1455 43.9785 46.6135 43.6425C47.0815 43.2945 47.3155 42.8265 47.3155 42.2385C47.3155 41.6625 47.0995 41.2065 46.6675 40.8705C46.2355 40.5345 45.5395 40.3665 44.5795 40.3665H43.4275V38.7645L47.0275 34.4805L47.3335 35.3625H40.5655V33.4005H49.1515V34.9665L45.5515 39.2505L44.3275 38.5305H45.0295C46.5775 38.5305 47.7355 38.8785 48.5035 39.5745C49.2835 40.2585 49.6735 41.1405 49.6735 42.2205C49.6735 42.9285 49.4935 43.5825 49.1335 44.1825C48.7735 44.7825 48.2215 45.2685 47.4775 45.6405C46.7455 46.0005 45.8155 46.1805 44.6875 46.1805Z" fill="url(#paint3_linear_25_310)" fill-opacity="0.4"/>
<defs>
<filter id="filter0_d_25_310" x="15.5117" y="0.000488281" width="46.9512" height="28.0166" filterUnits="userSpaceOnUse" color-interpolation-filters="sRGB">
<feFlood flood-opacity="0" result="BackgroundImageFix"/>
<feColorMatrix in="SourceAlpha" type="matrix" values="0 0 0 0 0 0 0 0 0 0 0 0 0 0 0 0 0 0 127 0" result="hardAlpha"/>
<feOffset dy="4"/>
<feGaussianBlur stdDeviation="2"/>
<feComposite in2="hardAlpha" operator="out"/>
<feColorMatrix type="matrix" values="0 0 0 0 0.28342 0 0 0 0 0.28342 0 0 0 0 0.28342 0 0 0 0.25 0"/>
<feBlend mode="normal" in2="BackgroundImageFix" result="effect1_dropShadow_25_310"/>
<feBlend mode="normal" in="SourceGraphic" in2="effect1_dropShadow_25_310" result="shape"/>
</filter>
<filter id="filter1_d_25_310" x="45.9849" y="5.25342" width="36.0151" height="41.7471" filterUnits="userSpaceOnUse" color-interpolation-filters="sRGB">
<feFlood flood-opacity="0" result="BackgroundImageFix"/>
<feColorMatrix in="SourceAlpha" type="matrix" values="0 0 0 0 0 0 0 0 0 0 0 0 0 0 0 0 0 0 127 0" result="hardAlpha"/>
<feOffset dy="4"/>
<feGaussianBlur stdDeviation="2"/>
<feComposite in2="hardAlpha" operator="out"/>
<feColorMatrix type="matrix" values="0 0 0 0 0.28342 0 0 0 0 0.28342 0 0 0 0 0.28342 0 0 0 0.25 0"/>
<feBlend mode="normal" in2="BackgroundImageFix" result="effect1_dropShadow_25_310"/>
<feBlend mode="normal" in="SourceGraphic" in2="effect1_dropShadow_25_310" result="shape"/>
</filter>
<filter id="filter2_d_25_310" x="45.8037" y="39.2092" width="36.1943" height="41.7229" filterUnits="userSpaceOnUse" color-interpolation-filters="sRGB">
<feFlood flood-opacity="0" result="BackgroundImageFix"/>
<feColorMatrix in="SourceAlpha" type="matrix" values="0 0 0 0 0 0 0 0 0 0 0 0 0 0 0 0 0 0 127 0" result="hardAlpha"/>
<feOffset dy="4"/>
<feGaussianBlur stdDeviation="2"/>
<feComposite in2="hardAlpha" operator="out"/>
<feColorMatrix type="matrix" values="0 0 0 0 0.28342 0 0 0 0 0.28342 0 0 0 0 0.28342 0 0 0 0.25 0"/>
<feBlend mode="normal" in2="BackgroundImageFix" result="effect1_dropShadow_25_310"/>
<feBlend mode="normal" in="SourceGraphic" in2="effect1_dropShadow_25_310" result="shape"/>
</filter>
<linearGradient id="paint0_linear_25_310" x1="39" y1="0.000488281" x2="39" y2="78.0005" gradientUnits="userSpaceOnUse">
<stop stop-color="white"/>
<stop offset="1" stop-color="white" stop-opacity="0"/>
</linearGradient>
<linearGradient id="paint1_linear_25_310" x1="39" y1="0.000488281" x2="39" y2="78.0005" gradientUnits="userSpaceOnUse">
<stop stop-color="white"/>
<stop offset="1" stop-color="white" stop-opacity="0"/>
</linearGradient>
<linearGradient id="paint2_linear_25_310" x1="39" y1="0.000488281" x2="39" y2="78.0005" gradientUnits="userSpaceOnUse">
<stop stop-color="white"/>
<stop offset="1" stop-color="white" stop-opacity="0"/>
</linearGradient>
<linearGradient id="paint3_linear_25_310" x1="39.5" y1="29.0005" x2="39.5" y2="51.0005" gradientUnits="userSpaceOnUse">
<stop stop-color="white"/>
<stop offset="1" stop-color="white" stop-opacity="0"/>
</linearGradient>
</defs>
</svg>
