<svg width="82" height="78" viewBox="0 0 82 78" fill="none" xmlns="http://www.w3.org/2000/svg">
<path d="M78 39.0005C78 60.5396 60.5391 78.0005 39 78.0005C17.4609 78.0005 0 60.5396 0 39.0005C0 17.4614 17.4609 0.000488281 39 0.000488281C60.5391 0.000488281 78 17.4614 78 39.0005ZM17.0843 39.0005C17.0843 51.1042 26.8963 60.9162 39 60.9162C51.1037 60.9162 60.9157 51.1042 60.9157 39.0005C60.9157 26.8968 51.1037 17.0848 39 17.0848C26.8963 17.0848 17.0843 26.8968 17.0843 39.0005Z" fill="#F0F0F0"/>
<g filter="url(#filter0_d_25_280)">
<path d="M58.4631 5.20423C52.5388 1.79247 45.8218 -0.00207604 38.9854 0.000491031C32.1489 0.0030581 25.4332 1.80264 19.5115 5.21886L28.0486 20.0172C31.3763 18.0975 35.1501 17.0862 38.9918 17.0848C42.8335 17.0833 46.608 18.0917 49.9371 20.009L58.4631 5.20423Z" fill="#F78918"/>
<path d="M58.4631 5.20423C52.5388 1.79247 45.8218 -0.00207604 38.9854 0.000491031C32.1489 0.0030581 25.4332 1.80264 19.5115 5.21886L28.0486 20.0172C31.3763 18.0975 35.1501 17.0862 38.9918 17.0848C42.8335 17.0833 46.608 18.0917 49.9371 20.009L58.4631 5.20423Z" fill="url(#paint0_linear_25_280)" fill-opacity="0.4"/>
</g>
<g filter="url(#filter1_d_25_280)">
<path d="M78 39.0005C78 32.164 76.2029 25.4477 72.7889 19.5247C69.375 13.6017 64.464 8.68016 58.5484 5.25346L49.985 20.0366C53.3093 21.9622 56.069 24.7278 57.9874 28.0562C59.9059 31.3846 60.9157 35.1588 60.9157 39.0005H78Z" fill="#F78918"/>
<path d="M78 39.0005C78 32.164 76.2029 25.4477 72.7889 19.5247C69.375 13.6017 64.464 8.68016 58.5484 5.25346L49.985 20.0366C53.3093 21.9622 56.069 24.7278 57.9874 28.0562C59.9059 31.3846 60.9157 35.1588 60.9157 39.0005H78Z" fill="url(#paint1_linear_25_280)" fill-opacity="0.4"/>
</g>
<path d="M61 39.001H78" stroke="white"/>
<path d="M19.5 5.22534L28 20.001" stroke="white"/>
<path d="M58.6938 5.00098L50 19.9421" stroke="white"/>
<path d="M34.048 46.1805C33.052 46.1805 32.152 45.9285 31.348 45.4245C30.556 44.9205 29.932 44.1885 29.476 43.2285C29.02 42.2565 28.792 41.0805 28.792 39.7005C28.792 38.3205 29.02 37.1505 29.476 36.1905C29.932 35.2185 30.556 34.4805 31.348 33.9765C32.152 33.4725 33.052 33.2205 34.048 33.2205C35.056 33.2205 35.956 33.4725 36.748 33.9765C37.54 34.4805 38.164 35.2185 38.62 36.1905C39.088 37.1505 39.322 38.3205 39.322 39.7005C39.322 41.0805 39.088 42.2565 38.62 43.2285C38.164 44.1885 37.54 44.9205 36.748 45.4245C35.956 45.9285 35.056 46.1805 34.048 46.1805ZM34.048 44.1465C34.636 44.1465 35.146 43.9905 35.578 43.6785C36.01 43.3545 36.346 42.8625 36.586 42.2025C36.838 41.5425 36.964 40.7085 36.964 39.7005C36.964 38.6805 36.838 37.8465 36.586 37.1985C36.346 36.5385 36.01 36.0525 35.578 35.7405C35.146 35.4165 34.636 35.2545 34.048 35.2545C33.484 35.2545 32.98 35.4165 32.536 35.7405C32.104 36.0525 31.762 36.5385 31.51 37.1985C31.27 37.8465 31.15 38.6805 31.15 39.7005C31.15 40.7085 31.27 41.5425 31.51 42.2025C31.762 42.8625 32.104 43.3545 32.536 43.6785C32.98 43.9905 33.484 44.1465 34.048 44.1465ZM40.7238 46.0005V44.4345L45.7278 39.6825C46.1478 39.2865 46.4598 38.9385 46.6638 38.6385C46.8678 38.3385 46.9998 38.0625 47.0598 37.8105C47.1318 37.5465 47.1678 37.3005 47.1678 37.0725C47.1678 36.4965 46.9698 36.0525 46.5738 35.7405C46.1778 35.4165 45.5958 35.2545 44.8278 35.2545C44.2158 35.2545 43.6578 35.3625 43.1538 35.5785C42.6618 35.7945 42.2358 36.1245 41.8758 36.5685L40.2378 35.3085C40.7298 34.6485 41.3898 34.1385 42.2178 33.7785C43.0578 33.4065 43.9938 33.2205 45.0258 33.2205C45.9378 33.2205 46.7298 33.3705 47.4018 33.6705C48.0858 33.9585 48.6078 34.3725 48.9678 34.9125C49.3398 35.4525 49.5258 36.0945 49.5258 36.8385C49.5258 37.2465 49.4718 37.6545 49.3638 38.0625C49.2558 38.4585 49.0518 38.8785 48.7518 39.3225C48.4518 39.7665 48.0138 40.2645 47.4378 40.8165L43.1358 44.9025L42.6498 44.0205H50.0117V46.0005H40.7238Z" fill="#F78918"/>
<path d="M34.048 46.1805C33.052 46.1805 32.152 45.9285 31.348 45.4245C30.556 44.9205 29.932 44.1885 29.476 43.2285C29.02 42.2565 28.792 41.0805 28.792 39.7005C28.792 38.3205 29.02 37.1505 29.476 36.1905C29.932 35.2185 30.556 34.4805 31.348 33.9765C32.152 33.4725 33.052 33.2205 34.048 33.2205C35.056 33.2205 35.956 33.4725 36.748 33.9765C37.54 34.4805 38.164 35.2185 38.62 36.1905C39.088 37.1505 39.322 38.3205 39.322 39.7005C39.322 41.0805 39.088 42.2565 38.62 43.2285C38.164 44.1885 37.54 44.9205 36.748 45.4245C35.956 45.9285 35.056 46.1805 34.048 46.1805ZM34.048 44.1465C34.636 44.1465 35.146 43.9905 35.578 43.6785C36.01 43.3545 36.346 42.8625 36.586 42.2025C36.838 41.5425 36.964 40.7085 36.964 39.7005C36.964 38.6805 36.838 37.8465 36.586 37.1985C36.346 36.5385 36.01 36.0525 35.578 35.7405C35.146 35.4165 34.636 35.2545 34.048 35.2545C33.484 35.2545 32.98 35.4165 32.536 35.7405C32.104 36.0525 31.762 36.5385 31.51 37.1985C31.27 37.8465 31.15 38.6805 31.15 39.7005C31.15 40.7085 31.27 41.5425 31.51 42.2025C31.762 42.8625 32.104 43.3545 32.536 43.6785C32.98 43.9905 33.484 44.1465 34.048 44.1465ZM40.7238 46.0005V44.4345L45.7278 39.6825C46.1478 39.2865 46.4598 38.9385 46.6638 38.6385C46.8678 38.3385 46.9998 38.0625 47.0598 37.8105C47.1318 37.5465 47.1678 37.3005 47.1678 37.0725C47.1678 36.4965 46.9698 36.0525 46.5738 35.7405C46.1778 35.4165 45.5958 35.2545 44.8278 35.2545C44.2158 35.2545 43.6578 35.3625 43.1538 35.5785C42.6618 35.7945 42.2358 36.1245 41.8758 36.5685L40.2378 35.3085C40.7298 34.6485 41.3898 34.1385 42.2178 33.7785C43.0578 33.4065 43.9938 33.2205 45.0258 33.2205C45.9378 33.2205 46.7298 33.3705 47.4018 33.6705C48.0858 33.9585 48.6078 34.3725 48.9678 34.9125C49.3398 35.4525 49.5258 36.0945 49.5258 36.8385C49.5258 37.2465 49.4718 37.6545 49.3638 38.0625C49.2558 38.4585 49.0518 38.8785 48.7518 39.3225C48.4518 39.7665 48.0138 40.2645 47.4378 40.8165L43.1358 44.9025L42.6498 44.0205H50.0117V46.0005H40.7238Z" fill="url(#paint2_linear_25_280)" fill-opacity="0.4"/>
<defs>
<filter id="filter0_d_25_280" x="15.5117" y="0.000488281" width="46.9512" height="28.0166" filterUnits="userSpaceOnUse" color-interpolation-filters="sRGB">
<feFlood flood-opacity="0" result="BackgroundImageFix"/>
<feColorMatrix in="SourceAlpha" type="matrix" values="0 0 0 0 0 0 0 0 0 0 0 0 0 0 0 0 0 0 127 0" result="hardAlpha"/>
<feOffset dy="4"/>
<feGaussianBlur stdDeviation="2"/>
<feComposite in2="hardAlpha" operator="out"/>
<feColorMatrix type="matrix" values="0 0 0 0 0.28342 0 0 0 0 0.28342 0 0 0 0 0.28342 0 0 0 0.25 0"/>
<feBlend mode="normal" in2="BackgroundImageFix" result="effect1_dropShadow_25_280"/>
<feBlend mode="normal" in="SourceGraphic" in2="effect1_dropShadow_25_280" result="shape"/>
</filter>
<filter id="filter1_d_25_280" x="45.9849" y="5.25342" width="36.0151" height="41.7471" filterUnits="userSpaceOnUse" color-interpolation-filters="sRGB">
<feFlood flood-opacity="0" result="BackgroundImageFix"/>
<feColorMatrix in="SourceAlpha" type="matrix" values="0 0 0 0 0 0 0 0 0 0 0 0 0 0 0 0 0 0 127 0" result="hardAlpha"/>
<feOffset dy="4"/>
<feGaussianBlur stdDeviation="2"/>
<feComposite in2="hardAlpha" operator="out"/>
<feColorMatrix type="matrix" values="0 0 0 0 0.28342 0 0 0 0 0.28342 0 0 0 0 0.28342 0 0 0 0.25 0"/>
<feBlend mode="normal" in2="BackgroundImageFix" result="effect1_dropShadow_25_280"/>
<feBlend mode="normal" in="SourceGraphic" in2="effect1_dropShadow_25_280" result="shape"/>
</filter>
<linearGradient id="paint0_linear_25_280" x1="39" y1="0.000488281" x2="39" y2="78.0005" gradientUnits="userSpaceOnUse">
<stop stop-color="white"/>
<stop offset="1" stop-color="white" stop-opacity="0"/>
</linearGradient>
<linearGradient id="paint1_linear_25_280" x1="39" y1="0.000488281" x2="39" y2="78.0005" gradientUnits="userSpaceOnUse">
<stop stop-color="white"/>
<stop offset="1" stop-color="white" stop-opacity="0"/>
</linearGradient>
<linearGradient id="paint2_linear_25_280" x1="39.5" y1="29.0005" x2="39.5" y2="51.0005" gradientUnits="userSpaceOnUse">
<stop stop-color="white"/>
<stop offset="1" stop-color="white" stop-opacity="0"/>
</linearGradient>
</defs>
</svg>
