<svg width="78" height="78" viewBox="0 0 78 78" fill="none" xmlns="http://www.w3.org/2000/svg">
<path d="M78 39.0005C78 60.5396 60.5391 78.0005 39 78.0005C17.4609 78.0005 0 60.5396 0 39.0005C0 17.4614 17.4609 0.000488281 39 0.000488281C60.5391 0.000488281 78 17.4614 78 39.0005ZM17.0843 39.0005C17.0843 51.1042 26.8963 60.9162 39 60.9162C51.1037 60.9162 60.9157 51.1042 60.9157 39.0005C60.9157 26.8968 51.1037 17.0848 39 17.0848C26.8963 17.0848 17.0843 26.8968 17.0843 39.0005Z" fill="#F0F0F0"/>
<g filter="url(#filter0_d_25_269)">
<path d="M58.4631 5.20423C52.5388 1.79247 45.8218 -0.00207604 38.9854 0.000491031C32.1489 0.0030581 25.4332 1.80264 19.5115 5.21886L28.0486 20.0172C31.3763 18.0975 35.1501 17.0862 38.9918 17.0848C42.8335 17.0833 46.608 18.0917 49.9371 20.009L58.4631 5.20423Z" fill="#F78918"/>
<path d="M58.4631 5.20423C52.5388 1.79247 45.8218 -0.00207604 38.9854 0.000491031C32.1489 0.0030581 25.4332 1.80264 19.5115 5.21886L28.0486 20.0172C31.3763 18.0975 35.1501 17.0862 38.9918 17.0848C42.8335 17.0833 46.608 18.0917 49.9371 20.009L58.4631 5.20423Z" fill="url(#paint0_linear_25_269)" fill-opacity="0.4"/>
</g>
<path d="M19.5 5.22534L28 20.001" stroke="white"/>
<path d="M58.6938 5.00098L50 19.9421" stroke="white"/>
<path d="M35.048 46.1805C34.052 46.1805 33.152 45.9285 32.348 45.4245C31.556 44.9205 30.932 44.1885 30.476 43.2285C30.02 42.2565 29.792 41.0805 29.792 39.7005C29.792 38.3205 30.02 37.1505 30.476 36.1905C30.932 35.2185 31.556 34.4805 32.348 33.9765C33.152 33.4725 34.052 33.2205 35.048 33.2205C36.056 33.2205 36.956 33.4725 37.748 33.9765C38.54 34.4805 39.164 35.2185 39.62 36.1905C40.088 37.1505 40.322 38.3205 40.322 39.7005C40.322 41.0805 40.088 42.2565 39.62 43.2285C39.164 44.1885 38.54 44.9205 37.748 45.4245C36.956 45.9285 36.056 46.1805 35.048 46.1805ZM35.048 44.1465C35.636 44.1465 36.146 43.9905 36.578 43.6785C37.01 43.3545 37.346 42.8625 37.586 42.2025C37.838 41.5425 37.964 40.7085 37.964 39.7005C37.964 38.6805 37.838 37.8465 37.586 37.1985C37.346 36.5385 37.01 36.0525 36.578 35.7405C36.146 35.4165 35.636 35.2545 35.048 35.2545C34.484 35.2545 33.98 35.4165 33.536 35.7405C33.104 36.0525 32.762 36.5385 32.51 37.1985C32.27 37.8465 32.15 38.6805 32.15 39.7005C32.15 40.7085 32.27 41.5425 32.51 42.2025C32.762 42.8625 33.104 43.3545 33.536 43.6785C33.98 43.9905 34.484 44.1465 35.048 44.1465ZM43.9018 46.0005V34.3005L44.9278 35.3625H41.2378V33.4005H46.2418V46.0005H43.9018Z" fill="#F78918"/>
<path d="M35.048 46.1805C34.052 46.1805 33.152 45.9285 32.348 45.4245C31.556 44.9205 30.932 44.1885 30.476 43.2285C30.02 42.2565 29.792 41.0805 29.792 39.7005C29.792 38.3205 30.02 37.1505 30.476 36.1905C30.932 35.2185 31.556 34.4805 32.348 33.9765C33.152 33.4725 34.052 33.2205 35.048 33.2205C36.056 33.2205 36.956 33.4725 37.748 33.9765C38.54 34.4805 39.164 35.2185 39.62 36.1905C40.088 37.1505 40.322 38.3205 40.322 39.7005C40.322 41.0805 40.088 42.2565 39.62 43.2285C39.164 44.1885 38.54 44.9205 37.748 45.4245C36.956 45.9285 36.056 46.1805 35.048 46.1805ZM35.048 44.1465C35.636 44.1465 36.146 43.9905 36.578 43.6785C37.01 43.3545 37.346 42.8625 37.586 42.2025C37.838 41.5425 37.964 40.7085 37.964 39.7005C37.964 38.6805 37.838 37.8465 37.586 37.1985C37.346 36.5385 37.01 36.0525 36.578 35.7405C36.146 35.4165 35.636 35.2545 35.048 35.2545C34.484 35.2545 33.98 35.4165 33.536 35.7405C33.104 36.0525 32.762 36.5385 32.51 37.1985C32.27 37.8465 32.15 38.6805 32.15 39.7005C32.15 40.7085 32.27 41.5425 32.51 42.2025C32.762 42.8625 33.104 43.3545 33.536 43.6785C33.98 43.9905 34.484 44.1465 35.048 44.1465ZM43.9018 46.0005V34.3005L44.9278 35.3625H41.2378V33.4005H46.2418V46.0005H43.9018Z" fill="url(#paint1_linear_25_269)" fill-opacity="0.4"/>
<defs>
<filter id="filter0_d_25_269" x="15.5117" y="0.000488281" width="46.9512" height="28.0166" filterUnits="userSpaceOnUse" color-interpolation-filters="sRGB">
<feFlood flood-opacity="0" result="BackgroundImageFix"/>
<feColorMatrix in="SourceAlpha" type="matrix" values="0 0 0 0 0 0 0 0 0 0 0 0 0 0 0 0 0 0 127 0" result="hardAlpha"/>
<feOffset dy="4"/>
<feGaussianBlur stdDeviation="2"/>
<feComposite in2="hardAlpha" operator="out"/>
<feColorMatrix type="matrix" values="0 0 0 0 0.28342 0 0 0 0 0.28342 0 0 0 0 0.28342 0 0 0 0.25 0"/>
<feBlend mode="normal" in2="BackgroundImageFix" result="effect1_dropShadow_25_269"/>
<feBlend mode="normal" in="SourceGraphic" in2="effect1_dropShadow_25_269" result="shape"/>
</filter>
<linearGradient id="paint0_linear_25_269" x1="39" y1="0.000488281" x2="39" y2="78.0005" gradientUnits="userSpaceOnUse">
<stop stop-color="white"/>
<stop offset="1" stop-color="white" stop-opacity="0"/>
</linearGradient>
<linearGradient id="paint1_linear_25_269" x1="38.5" y1="29.0005" x2="38.5" y2="51.0005" gradientUnits="userSpaceOnUse">
<stop stop-color="white"/>
<stop offset="1" stop-color="white" stop-opacity="0"/>
</linearGradient>
</defs>
</svg>
