<svg width="82" height="86" viewBox="0 0 82 86" fill="none" xmlns="http://www.w3.org/2000/svg">
<path d="M78 39.001C78 60.5401 60.5391 78.001 39 78.001C17.4609 78.001 0 60.5401 0 39.001C0 17.4619 17.4609 0.000976562 39 0.000976562C60.5391 0.000976562 78 17.4619 78 39.001ZM17.0843 39.001C17.0843 51.1047 26.8963 60.9167 39 60.9167C51.1037 60.9167 60.9157 51.1047 60.9157 39.001C60.9157 26.8972 51.1037 17.0852 39 17.0852C26.8963 17.0852 17.0843 26.8972 17.0843 39.001Z" fill="#F0F0F0"/>
<g filter="url(#filter0_d_25_293)">
<path d="M58.4631 5.20472C52.5388 1.79296 45.8218 -0.00158776 38.9854 0.000979312C32.1489 0.00354638 25.4332 1.80313 19.5115 5.21935L28.0486 20.0177C31.3763 18.0979 35.1501 17.0867 38.9918 17.0852C42.8335 17.0838 46.608 18.0922 49.9371 20.0094L58.4631 5.20472Z" fill="#F78918"/>
<path d="M58.4631 5.20472C52.5388 1.79296 45.8218 -0.00158776 38.9854 0.000979312C32.1489 0.00354638 25.4332 1.80313 19.5115 5.21935L28.0486 20.0177C31.3763 18.0979 35.1501 17.0867 38.9918 17.0852C42.8335 17.0838 46.608 18.0922 49.9371 20.0094L58.4631 5.20472Z" fill="url(#paint0_linear_25_293)" fill-opacity="0.4"/>
</g>
<g filter="url(#filter1_d_25_293)">
<path d="M78 39.001C78 32.1645 76.2029 25.4482 72.7889 19.5252C69.375 13.6022 64.464 8.68065 58.5484 5.25395L49.985 20.0371C53.3093 21.9627 56.069 24.7283 57.9874 28.0567C59.9059 31.3851 60.9157 35.1593 60.9157 39.001H78Z" fill="#F78918"/>
<path d="M78 39.001C78 32.1645 76.2029 25.4482 72.7889 19.5252C69.375 13.6022 64.464 8.68065 58.5484 5.25395L49.985 20.0371C53.3093 21.9627 56.069 24.7283 57.9874 28.0567C59.9059 31.3851 60.9157 35.1593 60.9157 39.001H78Z" fill="url(#paint1_linear_25_293)" fill-opacity="0.4"/>
</g>
<g filter="url(#filter2_d_25_293)">
<path d="M58.2259 72.9327C64.174 69.5625 69.1316 64.688 72.6019 58.7978C76.0721 52.9076 77.9331 46.2087 77.9982 39.3726L60.9147 39.2098C60.8781 43.0513 59.8324 46.8157 57.8823 50.1257C55.9322 53.4356 53.1463 56.1748 49.8039 58.0686L58.2259 72.9327Z" fill="#F78918"/>
<path d="M58.2259 72.9327C64.174 69.5625 69.1316 64.688 72.6019 58.7978C76.0721 52.9076 77.9331 46.2087 77.9982 39.3726L60.9147 39.2098C60.8781 43.0513 59.8324 46.8157 57.8823 50.1257C55.9322 53.4356 53.1463 56.1748 49.8039 58.0686L58.2259 72.9327Z" fill="url(#paint2_linear_25_293)" fill-opacity="0.4"/>
</g>
<g filter="url(#filter3_d_25_293)">
<path d="M19.2939 72.6561C25.1934 76.1105 31.8974 77.9534 38.7337 78.0001C45.57 78.0468 52.2984 76.2956 58.2446 72.9221L49.8143 58.0627C46.4729 59.9584 42.6919 60.9424 38.8503 60.9162C35.0087 60.89 31.2415 59.8544 27.9263 57.9132L19.2939 72.6561Z" fill="#F78918"/>
<path d="M19.2939 72.6561C25.1934 76.1105 31.8974 77.9534 38.7337 78.0001C45.57 78.0468 52.2984 76.2956 58.2446 72.9221L49.8143 58.0627C46.4729 59.9584 42.6919 60.9424 38.8503 60.9162C35.0087 60.89 31.2415 59.8544 27.9263 57.9132L19.2939 72.6561Z" fill="url(#paint3_linear_25_293)" fill-opacity="0.4"/>
</g>
<path d="M61 39.0015H78" stroke="white"/>
<path d="M19.5 5.22583L28 20.0015" stroke="white"/>
<path d="M50 58.0015L58.5 72.7771" stroke="white"/>
<path d="M28 58.0015L19.3062 72.9426" stroke="white"/>
<path d="M58.6938 5.00146L50 19.9426" stroke="white"/>
<path d="M34.048 46.181C33.052 46.181 32.152 45.929 31.348 45.425C30.556 44.921 29.932 44.189 29.476 43.229C29.02 42.257 28.792 41.081 28.792 39.701C28.792 38.321 29.02 37.151 29.476 36.191C29.932 35.219 30.556 34.481 31.348 33.977C32.152 33.473 33.052 33.221 34.048 33.221C35.056 33.221 35.956 33.473 36.748 33.977C37.54 34.481 38.164 35.219 38.62 36.191C39.088 37.151 39.322 38.321 39.322 39.701C39.322 41.081 39.088 42.257 38.62 43.229C38.164 44.189 37.54 44.921 36.748 45.425C35.956 45.929 35.056 46.181 34.048 46.181ZM34.048 44.147C34.636 44.147 35.146 43.991 35.578 43.679C36.01 43.355 36.346 42.863 36.586 42.203C36.838 41.543 36.964 40.709 36.964 39.701C36.964 38.681 36.838 37.847 36.586 37.199C36.346 36.539 36.01 36.053 35.578 35.741C35.146 35.417 34.636 35.255 34.048 35.255C33.484 35.255 32.98 35.417 32.536 35.741C32.104 36.053 31.762 36.539 31.51 37.199C31.27 37.847 31.15 38.681 31.15 39.701C31.15 40.709 31.27 41.543 31.51 42.203C31.762 42.863 32.104 43.355 32.536 43.679C32.98 43.991 33.484 44.147 34.048 44.147ZM40.7233 43.139V41.519L46.9333 33.401H49.4353L43.3153 41.519L42.1453 41.159H52.1353V43.139H40.7233ZM47.6353 46.001V43.139L47.7073 41.159V38.621H49.9033V46.001H47.6353Z" fill="#F78918"/>
<path d="M34.048 46.181C33.052 46.181 32.152 45.929 31.348 45.425C30.556 44.921 29.932 44.189 29.476 43.229C29.02 42.257 28.792 41.081 28.792 39.701C28.792 38.321 29.02 37.151 29.476 36.191C29.932 35.219 30.556 34.481 31.348 33.977C32.152 33.473 33.052 33.221 34.048 33.221C35.056 33.221 35.956 33.473 36.748 33.977C37.54 34.481 38.164 35.219 38.62 36.191C39.088 37.151 39.322 38.321 39.322 39.701C39.322 41.081 39.088 42.257 38.62 43.229C38.164 44.189 37.54 44.921 36.748 45.425C35.956 45.929 35.056 46.181 34.048 46.181ZM34.048 44.147C34.636 44.147 35.146 43.991 35.578 43.679C36.01 43.355 36.346 42.863 36.586 42.203C36.838 41.543 36.964 40.709 36.964 39.701C36.964 38.681 36.838 37.847 36.586 37.199C36.346 36.539 36.01 36.053 35.578 35.741C35.146 35.417 34.636 35.255 34.048 35.255C33.484 35.255 32.98 35.417 32.536 35.741C32.104 36.053 31.762 36.539 31.51 37.199C31.27 37.847 31.15 38.681 31.15 39.701C31.15 40.709 31.27 41.543 31.51 42.203C31.762 42.863 32.104 43.355 32.536 43.679C32.98 43.991 33.484 44.147 34.048 44.147ZM40.7233 43.139V41.519L46.9333 33.401H49.4353L43.3153 41.519L42.1453 41.159H52.1353V43.139H40.7233ZM47.6353 46.001V43.139L47.7073 41.159V38.621H49.9033V46.001H47.6353Z" fill="url(#paint4_linear_25_293)" fill-opacity="0.4"/>
<defs>
<filter id="filter0_d_25_293" x="15.5117" y="0.000976562" width="46.9512" height="28.0166" filterUnits="userSpaceOnUse" color-interpolation-filters="sRGB">
<feFlood flood-opacity="0" result="BackgroundImageFix"/>
<feColorMatrix in="SourceAlpha" type="matrix" values="0 0 0 0 0 0 0 0 0 0 0 0 0 0 0 0 0 0 127 0" result="hardAlpha"/>
<feOffset dy="4"/>
<feGaussianBlur stdDeviation="2"/>
<feComposite in2="hardAlpha" operator="out"/>
<feColorMatrix type="matrix" values="0 0 0 0 0.28342 0 0 0 0 0.28342 0 0 0 0 0.28342 0 0 0 0.25 0"/>
<feBlend mode="normal" in2="BackgroundImageFix" result="effect1_dropShadow_25_293"/>
<feBlend mode="normal" in="SourceGraphic" in2="effect1_dropShadow_25_293" result="shape"/>
</filter>
<filter id="filter1_d_25_293" x="45.9849" y="5.25391" width="36.0151" height="41.7471" filterUnits="userSpaceOnUse" color-interpolation-filters="sRGB">
<feFlood flood-opacity="0" result="BackgroundImageFix"/>
<feColorMatrix in="SourceAlpha" type="matrix" values="0 0 0 0 0 0 0 0 0 0 0 0 0 0 0 0 0 0 127 0" result="hardAlpha"/>
<feOffset dy="4"/>
<feGaussianBlur stdDeviation="2"/>
<feComposite in2="hardAlpha" operator="out"/>
<feColorMatrix type="matrix" values="0 0 0 0 0.28342 0 0 0 0 0.28342 0 0 0 0 0.28342 0 0 0 0.25 0"/>
<feBlend mode="normal" in2="BackgroundImageFix" result="effect1_dropShadow_25_293"/>
<feBlend mode="normal" in="SourceGraphic" in2="effect1_dropShadow_25_293" result="shape"/>
</filter>
<filter id="filter2_d_25_293" x="45.8037" y="39.2097" width="36.1943" height="41.7229" filterUnits="userSpaceOnUse" color-interpolation-filters="sRGB">
<feFlood flood-opacity="0" result="BackgroundImageFix"/>
<feColorMatrix in="SourceAlpha" type="matrix" values="0 0 0 0 0 0 0 0 0 0 0 0 0 0 0 0 0 0 127 0" result="hardAlpha"/>
<feOffset dy="4"/>
<feGaussianBlur stdDeviation="2"/>
<feComposite in2="hardAlpha" operator="out"/>
<feColorMatrix type="matrix" values="0 0 0 0 0.28342 0 0 0 0 0.28342 0 0 0 0 0.28342 0 0 0 0.25 0"/>
<feBlend mode="normal" in2="BackgroundImageFix" result="effect1_dropShadow_25_293"/>
<feBlend mode="normal" in="SourceGraphic" in2="effect1_dropShadow_25_293" result="shape"/>
</filter>
<filter id="filter3_d_25_293" x="15.2939" y="57.9133" width="46.9507" height="28.0876" filterUnits="userSpaceOnUse" color-interpolation-filters="sRGB">
<feFlood flood-opacity="0" result="BackgroundImageFix"/>
<feColorMatrix in="SourceAlpha" type="matrix" values="0 0 0 0 0 0 0 0 0 0 0 0 0 0 0 0 0 0 127 0" result="hardAlpha"/>
<feOffset dy="4"/>
<feGaussianBlur stdDeviation="2"/>
<feComposite in2="hardAlpha" operator="out"/>
<feColorMatrix type="matrix" values="0 0 0 0 0.28342 0 0 0 0 0.28342 0 0 0 0 0.28342 0 0 0 0.25 0"/>
<feBlend mode="normal" in2="BackgroundImageFix" result="effect1_dropShadow_25_293"/>
<feBlend mode="normal" in="SourceGraphic" in2="effect1_dropShadow_25_293" result="shape"/>
</filter>
<linearGradient id="paint0_linear_25_293" x1="39" y1="0.000976562" x2="39" y2="78.001" gradientUnits="userSpaceOnUse">
<stop stop-color="white"/>
<stop offset="1" stop-color="white" stop-opacity="0"/>
</linearGradient>
<linearGradient id="paint1_linear_25_293" x1="39" y1="0.000976562" x2="39" y2="78.001" gradientUnits="userSpaceOnUse">
<stop stop-color="white"/>
<stop offset="1" stop-color="white" stop-opacity="0"/>
</linearGradient>
<linearGradient id="paint2_linear_25_293" x1="39" y1="0.000976562" x2="39" y2="78.001" gradientUnits="userSpaceOnUse">
<stop stop-color="white"/>
<stop offset="1" stop-color="white" stop-opacity="0"/>
</linearGradient>
<linearGradient id="paint3_linear_25_293" x1="39" y1="0.000976562" x2="39" y2="78.001" gradientUnits="userSpaceOnUse">
<stop stop-color="white"/>
<stop offset="1" stop-color="white" stop-opacity="0"/>
</linearGradient>
<linearGradient id="paint4_linear_25_293" x1="40.5" y1="29.001" x2="40.5" y2="51.001" gradientUnits="userSpaceOnUse">
<stop stop-color="white"/>
<stop offset="1" stop-color="white" stop-opacity="0"/>
</linearGradient>
</defs>
</svg>
