<svg width="38" height="38" viewBox="0 0 38 38" fill="none" xmlns="http://www.w3.org/2000/svg">
<g id="Frame 5">
<g id="Group 17">
<path id="Polygon 5" d="M0 5C0 2.23858 2.23858 0 5 0H33C35.7614 0 38 2.23858 38 5V33C38 35.7614 35.7614 38 33 38H5C2.23858 38 0 35.7614 0 33V5Z" fill="#E9E9E9"/>
<path id="Polygon 4" d="M1 6C1 3.23858 3.23858 1 6 1H31C33.7614 1 36 3.23858 36 6V31C36 33.7614 33.7614 36 31 36H6C3.23858 36 1 33.7614 1 31V6Z" fill="#E1E1E1"/>
<path id="Polygon 1" d="M3 8C3 5.23858 5.23858 3 8 3H29C31.7614 3 34 5.23858 34 8V29C34 31.7614 31.7614 34 29 34H8C5.23858 34 3 31.7614 3 29V8Z" fill="url(#paint0_radial_27_478)"/>
<g id="Polygon 6" filter="url(#filter0_i_27_478)">
<path d="M8 13C8 10.2386 10.2386 8 13 8H25C27.7614 8 30 10.2386 30 13V25C30 27.7614 27.7614 30 25 30H13C10.2386 30 8 27.7614 8 25V13Z" fill="#9F423C"/>
</g>
</g>
<path id="Vector 3" d="M23 15L19.5 18.5M16 22L19.5 18.5M19.5 18.5L23 22L16 15" stroke="white" stroke-width="2" stroke-linecap="round" stroke-linejoin="round"/>
</g>
<defs>
<filter id="filter0_i_27_478" x="4" y="4" width="26" height="26" filterUnits="userSpaceOnUse" color-interpolation-filters="sRGB">
<feFlood flood-opacity="0" result="BackgroundImageFix"/>
<feBlend mode="normal" in="SourceGraphic" in2="BackgroundImageFix" result="shape"/>
<feColorMatrix in="SourceAlpha" type="matrix" values="0 0 0 0 0 0 0 0 0 0 0 0 0 0 0 0 0 0 127 0" result="hardAlpha"/>
<feOffset dx="-4" dy="-4"/>
<feGaussianBlur stdDeviation="4.5"/>
<feComposite in2="hardAlpha" operator="arithmetic" k2="-1" k3="1"/>
<feColorMatrix type="matrix" values="0 0 0 0 0 0 0 0 0 0 0 0 0 0 0 0 0 0 0.1 0"/>
<feBlend mode="normal" in2="shape" result="effect1_innerShadow_27_478"/>
</filter>
<radialGradient id="paint0_radial_27_478" cx="0" cy="0" r="1" gradientUnits="userSpaceOnUse" gradientTransform="translate(18.5 23.6667) rotate(90) scale(20.6667 17.8979)">
<stop stop-color="#B56D6D" stop-opacity="0.47"/>
<stop offset="1" stop-color="#EBEBEB"/>
</radialGradient>
</defs>
</svg>
