<svg width="22" height="16" viewBox="0 0 22 16" fill="none" xmlns="http://www.w3.org/2000/svg">
<g id="Group 1321316636">
<path id="Rectangle 6813" d="M1 2L1.5 0.5L17 1H21L20.5 4L11.5 10.5H10L1.5 4.5L1 2Z" fill="#F78918"/>
<path id="Vector" d="M20.4286 14.1818V5.45455C20.1667 5.72727 19.8843 5.97727 19.5815 6.20455C17.388 7.76515 15.6447 9.04545 14.3516 10.0455C13.9342 10.3712 13.5945 10.625 13.3326 10.8068C13.0707 10.9886 12.7167 11.1723 12.2706 11.358C11.8246 11.5436 11.4051 11.6364 11.0123 11.6364H10.9877C10.5949 11.6364 10.1754 11.5436 9.72935 11.358C9.2833 11.1723 8.92932 10.9886 8.66741 10.8068C8.40551 10.625 8.06585 10.3712 7.64844 10.0455C6.35528 9.04545 4.61198 7.76515 2.41853 6.20455C2.1157 5.97727 1.83333 5.72727 1.57143 5.45455V14.1818C1.57143 14.2803 1.61031 14.3655 1.68806 14.4375C1.76581 14.5095 1.85789 14.5455 1.96429 14.5455H20.0357C20.1421 14.5455 20.2342 14.5095 20.3119 14.4375C20.3897 14.3655 20.4286 14.2803 20.4286 14.1818ZM20.4286 2.23864V1.96023L20.4224 1.8125L20.3856 1.67045L20.3181 1.56818L20.2076 1.48295L20.0357 1.45455H1.96429C1.85789 1.45455 1.76581 1.49053 1.68806 1.5625C1.61031 1.63447 1.57143 1.7197 1.57143 1.81818C1.57143 3.09091 2.17299 4.16667 3.37612 5.04545C4.95573 6.19697 6.59673 7.39773 8.29911 8.64773C8.34821 8.68561 8.49144 8.79735 8.72879 8.98295C8.96615 9.16856 9.15439 9.31061 9.29353 9.40909C9.43266 9.50758 9.61477 9.62689 9.83984 9.76705C10.0649 9.9072 10.2716 10.0114 10.4598 10.0795C10.6481 10.1477 10.824 10.1818 10.9877 10.1818H11.0123C11.176 10.1818 11.3519 10.1477 11.5402 10.0795C11.7284 10.0114 11.9351 9.9072 12.1602 9.76705C12.3852 9.62689 12.5673 9.50758 12.7065 9.40909C12.8456 9.31061 13.0339 9.16856 13.2712 8.98295C13.5086 8.79735 13.6518 8.68561 13.7009 8.64773C15.4033 7.39773 17.0443 6.19697 18.6239 5.04545C19.0658 4.7197 19.4771 4.2822 19.8577 3.73295C20.2383 3.18371 20.4286 2.68561 20.4286 2.23864ZM22 1.81818V14.1818C22 14.6818 21.8077 15.1098 21.423 15.4659C21.0383 15.822 20.5759 16 20.0357 16H1.96429C1.42411 16 0.961681 15.822 0.577009 15.4659C0.192336 15.1098 0 14.6818 0 14.1818V1.81818C0 1.31818 0.192336 0.890152 0.577009 0.534091C0.961681 0.17803 1.42411 0 1.96429 0H20.0357C20.5759 0 21.0383 0.17803 21.423 0.534091C21.8077 0.890152 22 1.31818 22 1.81818Z" fill="#F78918"/>
</g>
</svg>
