<svg width="17" height="17" viewBox="0 0 17 17" fill="none" xmlns="http://www.w3.org/2000/svg">
<g id="social_viber_chat_icon_131211 1" clip-path="url(#clip0_40_81)">
<path id="Vector" d="M8.5 0C4.30312 0 0 0.903125 0 7.4375C0 10.9438 1.22188 13.1219 3.71875 14.1313V16.0969C3.71875 16.4688 3.93125 16.7875 4.25 16.9469C4.35625 17 4.51562 17 4.62187 17C4.83437 17 5.1 16.8937 5.25937 16.7344L7.17188 14.8219C7.59688 14.8219 8.02188 14.875 8.5 14.875C12.6969 14.875 17 13.9719 17 7.4375C17 0.903125 12.6969 0 8.5 0Z" fill="#7B519C"/>
<g id="Group">
<g id="Group_2">
<path id="Vector_2" d="M8.23438 4.83447C9.50938 4.83447 10.5719 5.89697 10.5719 7.17197C10.5719 7.49072 10.7844 7.70322 11.1031 7.70322C11.4219 7.70322 11.6344 7.49072 11.6344 7.17197C11.6344 5.3126 10.0938 3.77197 8.23438 3.77197C7.91562 3.77197 7.70312 3.98447 7.70312 4.30322C7.70312 4.62197 7.91562 4.83447 8.23438 4.83447Z" fill="white"/>
<path id="Vector_3" d="M8.23438 6.48145C8.60625 6.48145 8.925 6.8002 8.925 7.17207C8.925 7.49082 9.1375 7.70332 9.45625 7.70332C9.775 7.70332 9.9875 7.49082 9.9875 7.17207C9.9875 6.21582 9.19062 5.41895 8.23438 5.41895C7.91562 5.41895 7.70312 5.63145 7.70312 5.9502C7.70312 6.26895 7.91562 6.48145 8.23438 6.48145Z" fill="white"/>
<path id="Vector_4" d="M8.23438 2.125C7.91562 2.125 7.70312 2.3375 7.70312 2.65625C7.70312 2.975 7.91562 3.1875 8.23438 3.1875C10.4125 3.1875 12.2188 4.99375 12.2188 7.17188C12.2188 7.49062 12.4313 7.70312 12.75 7.70312C13.0687 7.70312 13.2812 7.49062 13.2812 7.17188C13.2812 4.40938 10.9969 2.125 8.23438 2.125Z" fill="white"/>
<path id="Vector_5" d="M11.6344 9.08438L11.5281 9.03125C11.5281 9.03125 10.3594 8.44688 10.1469 8.39375C9.72188 8.23438 9.29688 8.34062 9.03125 8.7125L8.97812 8.81875C8.87187 8.97813 8.7125 9.19063 8.60625 9.29688C8.34063 9.19063 7.8625 8.97812 7.225 8.44687C6.8 8.075 6.48125 7.59688 6.32187 7.33125C6.375 7.27813 6.375 7.27813 6.42813 7.225C6.48125 7.17188 6.53437 7.11875 6.5875 7.06563C6.69375 6.95938 6.74687 6.85313 6.85312 6.69375C6.95937 6.42813 6.95937 6.1625 6.85312 5.84375C6.8 5.7375 6.5875 5.25937 6.42813 4.8875L6.21562 4.4625C6.00312 3.93125 5.68438 3.825 5.3125 3.825C5.25938 3.71875 5.20625 3.71875 5.1 3.71875C4.675 3.71875 4.30312 3.87813 4.0375 4.14375C3.77187 4.40938 3.1875 4.99375 3.1875 6.1625C3.1875 7.11875 3.77187 8.02187 4.09062 8.5L4.14375 8.55313C5.15313 10.0406 6.42812 11.1031 7.70312 11.6344C8.81875 12.1125 9.45625 12.2188 9.88125 12.2188C10.0938 12.2188 10.2531 12.2188 10.3594 12.1656C11.05 12.0062 11.8469 11.5281 12.0594 10.8906C12.1656 10.5188 12.325 9.88125 12.1125 9.50937C12.0062 9.29688 11.7937 9.19063 11.6344 9.08438Z" fill="white"/>
</g>
</g>
</g>
<defs>
<clipPath id="clip0_40_81">
<rect width="17" height="17" fill="white"/>
</clipPath>
</defs>
</svg>
